# xmcd
#
# Track frame offsets:
#  150
#  19079
#  34134
#  56244
#  71927
#  84079
#  98989
#  115358
#  126531
#  137772
#  157262
#  168546
#
# Disc length: 2468 seconds
#
# Revision: 0
# Processed by: cddbd v1.5.1PL2 Copyright (c) Steve Scherf et al.
# Submitted via: Collectorz.com_Music_Collector 6.11
#
DISCID=b209a20c
DTITLE=Gretchen Wilson - Hell Yeah: Pickin' On Gretchen Wilson - A Bluegrass Tribute
DYEAR=2004
DGENRE=Bluegrass
TTITLE0=Here For The Party
TTITLE1=Redneck Woman
TTITLE2=When I Think About Cheatin'
TTITLE3=Homewrecker
TTITLE4=Holdin' You
TTITLE5=Chariot
TTITLE6=What Happened
TTITLE7=When It Rains
TTITLE8=The Bed
TTITLE9=Pocahontas Proud
TTITLE10=Leavin' On Your Mind
TTITLE11=Redneck Stomp
EXTD=
EXTT0=
EXTT1=
EXTT2=
EXTT3=
EXTT4=
EXTT5=
EXTT6=
EXTT7=
EXTT8=
EXTT9=
EXTT10=
EXTT11=
PLAYORDER=
